<svg id="Layer_1" data-name="Layer 1" xmlns="http://www.w3.org/2000/svg" viewBox="0 0 16.9 18.89"><defs><style>.cls-1{fill:none;}</style></defs><title>Artboard 1</title><path class="cls-1" d="M.89,16.67A1.35,1.35,0,0,0,2.22,18H14.68A1.34,1.34,0,0,0,16,16.67v-10H.89Zm12.19-8h.5a.5.5,0,0,1,0,1h-.5a.5.5,0,0,1,0-1Zm0,3.21h.5a.5.5,0,0,1,0,1h-.5a.5.5,0,0,1,0-1Zm0,3.21h.5a.5.5,0,0,1,0,1h-.5a.5.5,0,1,1,0-1ZM9.83,8.69h.5a.5.5,0,0,1,0,1h-.5a.5.5,0,0,1,0-1Zm0,3.21h.5a.5.5,0,0,1,.5.5.52.52,0,0,1-.5.5h-.5a.5.5,0,0,1,0-1Zm0,3.21h.5a.5.5,0,0,1,.5.5.52.52,0,0,1-.5.5h-.5a.5.5,0,1,1,0-1ZM6.58,8.69h.5a.5.5,0,0,1,0,1h-.5a.5.5,0,0,1,0-1Zm0,3.21h.5a.5.5,0,0,1,.5.5.52.52,0,0,1-.5.5h-.5a.5.5,0,0,1,0-1Zm0,3.21h.5a.5.5,0,0,1,.5.5.52.52,0,0,1-.5.5h-.5a.5.5,0,1,1,0-1ZM3.32,8.69h.5a.5.5,0,0,1,0,1h-.5a.5.5,0,0,1,0-1Zm0,3.21h.5a.5.5,0,1,1,0,1h-.5a.52.52,0,0,1-.5-.5A.5.5,0,0,1,3.32,11.9Zm0,3.21h.5a.5.5,0,1,1,0,1h-.5a.52.52,0,0,1-.5-.5A.5.5,0,0,1,3.32,15.11Z"/><path class="cls-1" d="M14.68,2.88H2.22A1.35,1.35,0,0,0,.89,4.21V5.79H16V4.21A1.34,1.34,0,0,0,14.68,2.88Z"/><path d="M14.69,2h-1V.44a.45.45,0,0,0-.89,0V2H4.07V.44a.45.45,0,0,0-.89,0V2h-1A2.22,2.22,0,0,0,0,4.21V16.67a2.24,2.24,0,0,0,2.22,2.22H14.68a2.21,2.21,0,0,0,2.22-2.22V4.21A2.21,2.21,0,0,0,14.69,2ZM16,16.67A1.34,1.34,0,0,1,14.68,18H2.22A1.35,1.35,0,0,1,.89,16.67v-10H16ZM16,5.79H.89V4.21A1.35,1.35,0,0,1,2.22,2.88H14.68A1.34,1.34,0,0,1,16,4.21Z"/><path d="M3.32,12.9h.5a.5.5,0,1,0,0-1h-.5a.5.5,0,0,0-.5.5A.52.52,0,0,0,3.32,12.9Z"/><path d="M6.58,12.9h.5a.52.52,0,0,0,.5-.5.5.5,0,0,0-.5-.5h-.5a.5.5,0,0,0,0,1Z"/><path d="M3.32,9.69h.5a.5.5,0,0,0,0-1h-.5a.5.5,0,0,0,0,1Z"/><path d="M6.58,9.69h.5a.5.5,0,0,0,0-1h-.5a.5.5,0,0,0,0,1Z"/><path d="M3.32,16.11h.5a.5.5,0,1,0,0-1h-.5a.5.5,0,0,0-.5.5A.52.52,0,0,0,3.32,16.11Z"/><path d="M6.58,16.11h.5a.52.52,0,0,0,.5-.5.5.5,0,0,0-.5-.5h-.5a.5.5,0,1,0,0,1Z"/><path d="M9.83,12.9h.5a.52.52,0,0,0,.5-.5.5.5,0,0,0-.5-.5h-.5a.5.5,0,0,0,0,1Z"/><path d="M13.08,12.9h.5a.5.5,0,0,0,0-1h-.5a.5.5,0,0,0,0,1Z"/><path d="M9.83,9.69h.5a.5.5,0,0,0,0-1h-.5a.5.5,0,0,0,0,1Z"/><path d="M13.08,9.69h.5a.5.5,0,0,0,0-1h-.5a.5.5,0,0,0,0,1Z"/><path d="M9.83,16.11h.5a.52.52,0,0,0,.5-.5.5.5,0,0,0-.5-.5h-.5a.5.5,0,1,0,0,1Z"/><path d="M13.08,16.11h.5a.5.5,0,0,0,0-1h-.5a.5.5,0,1,0,0,1Z"/></svg>