<svg id="Layer_1" data-name="Layer 1" xmlns="http://www.w3.org/2000/svg" viewBox="0 0 30 32.73"><defs><style>.cls-1{fill:none;}.cls-2{fill:#4071c2;}.cls-3{fill:#fff;}</style></defs><title>Artboard 1</title><rect class="cls-1" x="4.19" y="27.49" width="21.62" height="3.25"/><path class="cls-1" d="M25.81,6.41,21.39,2H4.19V17.49H25.81ZM7.19,5.29h10.6a1,1,0,0,1,0,2H7.19a1,1,0,0,1,0-2Zm15,8.1h-15a1,1,0,0,1,0-2h15a1,1,0,0,1,0,2Z"/><path class="cls-2" d="M29,17.49H27.81V6a1,1,0,0,0-.3-.71l-5-5a1,1,0,0,0-.7-.29H3.19a1,1,0,0,0-1,1V17.49H1a1,1,0,0,0-1,1v8a1,1,0,0,0,1,1H2.19v4.24a1,1,0,0,0,1,1H26.81a1,1,0,0,0,1-1V27.49H29a1,1,0,0,0,1-1v-8A1,1,0,0,0,29,17.49ZM4.19,2h17.2l4.42,4.41V17.49H4.19Zm17,21.86a7,7,0,0,0,1.36-.2v.83a7.33,7.33,0,0,1-1.47.15,5.07,5.07,0,0,1-.55,0h0a4.94,4.94,0,0,1-.53-.1,1.67,1.67,0,0,1-.53-.23.92.92,0,0,1-.35-.38,1.14,1.14,0,0,1-.15-.58v-2c0-.92.7-1.37,2.11-1.37a8.68,8.68,0,0,1,1.44.15v.82a6.17,6.17,0,0,0-1.43-.2h-.4a1.63,1.63,0,0,0-.3.07.49.49,0,0,0-.33.5v1.93C20.11,23.65,20.49,23.86,21.24,23.86Zm-3.69-2.53v2a1,1,0,0,1-.2.65,1.18,1.18,0,0,1-.55.41,3.59,3.59,0,0,1-1.41.25,3.3,3.3,0,0,1-.7-.05,4,4,0,0,1-.66-.16,1.26,1.26,0,0,1-.58-.41,1.15,1.15,0,0,1-.21-.69v-2a1.24,1.24,0,0,1,.15-.6,1.21,1.21,0,0,1,.39-.42,1.85,1.85,0,0,1,.52-.22,2.75,2.75,0,0,1,.57-.12l.52,0A4.61,4.61,0,0,1,16,20a3.1,3.1,0,0,1,.53.1,2.21,2.21,0,0,1,.55.23,1.18,1.18,0,0,1,.37.4A1.21,1.21,0,0,1,17.55,21.33Zm-5.78.07v1.85a1.33,1.33,0,0,1-.2.8,1.11,1.11,0,0,1-.67.4,5.5,5.5,0,0,1-1.28.12H7.68V20H9.61a4.82,4.82,0,0,1,1.26.13,1.12,1.12,0,0,1,.68.42A1.37,1.37,0,0,1,11.77,21.4Zm14,9.33H4.19V27.49H25.81Z"/><path class="cls-2" d="M10.42,20.93a2.08,2.08,0,0,0-.82-.13H8.77v3h.8a3.88,3.88,0,0,0,.68,0,.55.55,0,0,0,.33-.15.53.53,0,0,0,.1-.35V21.38A.49.49,0,0,0,10.42,20.93Z"/><path class="cls-2" d="M16.2,20.86a1.82,1.82,0,0,0-.8-.13,1.8,1.8,0,0,0-.8.13.46.46,0,0,0-.26.46v2a.4.4,0,0,0,.09.29.48.48,0,0,0,.26.16,1.94,1.94,0,0,0,.33.07,5,5,0,0,0,.77,0,1.94,1.94,0,0,0,.33-.07.42.42,0,0,0,.25-.16.52.52,0,0,0,.09-.29v-2A.49.49,0,0,0,16.2,20.86Z"/><path class="cls-3" d="M9.61,20H7.68v4.55H9.62a5.5,5.5,0,0,0,1.28-.12,1.11,1.11,0,0,0,.67-.4,1.33,1.33,0,0,0,.2-.8V21.4a1.37,1.37,0,0,0-.22-.83,1.12,1.12,0,0,0-.68-.42A4.82,4.82,0,0,0,9.61,20Zm1.07,3.23a.53.53,0,0,1-.1.35.55.55,0,0,1-.33.15,3.88,3.88,0,0,1-.68,0h-.8v-3H9.6a2.08,2.08,0,0,1,.82.13.49.49,0,0,1,.26.45Z"/><path class="cls-3" d="M16.48,20.08A3.1,3.1,0,0,0,16,20a4.61,4.61,0,0,0-.56,0l-.52,0a2.75,2.75,0,0,0-.57.12,1.85,1.85,0,0,0-.52.22,1.21,1.21,0,0,0-.39.42,1.24,1.24,0,0,0-.15.6v2a1.15,1.15,0,0,0,.21.69,1.26,1.26,0,0,0,.58.41,4,4,0,0,0,.66.16,3.3,3.3,0,0,0,.7.05,3.59,3.59,0,0,0,1.41-.25,1.18,1.18,0,0,0,.55-.41,1,1,0,0,0,.2-.65v-2a1.21,1.21,0,0,0-.15-.62,1.18,1.18,0,0,0-.37-.4A2.21,2.21,0,0,0,16.48,20.08Zm0,3.24a.52.52,0,0,1-.09.29.42.42,0,0,1-.25.16,1.94,1.94,0,0,1-.33.07,5,5,0,0,1-.77,0,1.94,1.94,0,0,1-.33-.07.48.48,0,0,1-.26-.16.4.4,0,0,1-.09-.29v-2a.46.46,0,0,1,.26-.46,1.8,1.8,0,0,1,.8-.13,1.82,1.82,0,0,1,.8.13.49.49,0,0,1,.26.46Z"/><path class="cls-3" d="M20.44,20.81a1.63,1.63,0,0,1,.3-.07h.4a6.17,6.17,0,0,1,1.43.2v-.82A8.68,8.68,0,0,0,21.13,20c-1.41,0-2.11.45-2.11,1.37v2a1.14,1.14,0,0,0,.15.58.92.92,0,0,0,.35.38,1.67,1.67,0,0,0,.53.23,4.94,4.94,0,0,0,.53.1h0a5.07,5.07,0,0,0,.55,0,7.33,7.33,0,0,0,1.47-.15v-.83a7,7,0,0,1-1.36.2c-.75,0-1.13-.21-1.13-.62V21.31A.49.49,0,0,1,20.44,20.81Z"/><path class="cls-2" d="M7.19,7.29h10.6a1,1,0,0,0,0-2H7.19a1,1,0,0,0,0,2Z"/><path class="cls-2" d="M22.19,11.39h-15a1,1,0,0,0,0,2h15a1,1,0,0,0,0-2Z"/></svg>