<svg id="Layer_1" data-name="Layer 1" xmlns="http://www.w3.org/2000/svg" viewBox="0 0 16.99 16.99"><path class="cls-1" d="M8.49,17A33.56,33.56,0,0,1,5,16.91,6.29,6.29,0,0,1,3,16.55a4.18,4.18,0,0,1-1.48-1A3.53,3.53,0,0,1,.44,14,6.29,6.29,0,0,1,.08,12,33.69,33.69,0,0,1,0,8.49C0,7.34,0,6.18.07,5A6.57,6.57,0,0,1,.44,3a3.53,3.53,0,0,1,1-1.48A4.74,4.74,0,0,1,3,.44,6.39,6.39,0,0,1,5,.08,32.54,32.54,0,0,1,8.49,0,32.42,32.42,0,0,1,12,.08,6.3,6.3,0,0,1,14,.44a4.27,4.27,0,0,1,1.48,1,3.54,3.54,0,0,1,1,1.47A6.41,6.41,0,0,1,16.91,5,33.56,33.56,0,0,1,17,8.49,33.43,33.43,0,0,1,16.91,12,6.31,6.31,0,0,1,16.54,14,5.11,5.11,0,0,1,14,16.54a6.31,6.31,0,0,1-2.07.37A33.43,33.43,0,0,1,8.49,17Zm0-15.22a23.81,23.81,0,0,0-2.8.08,4.14,4.14,0,0,0-1.63.3A3.1,3.1,0,0,0,2.14,4.07a6,6,0,0,0-.37,1.62A24,24,0,0,0,1.7,8.5a24,24,0,0,0,.07,2.81,4.31,4.31,0,0,0,.3,1.62,3.68,3.68,0,0,0,3.55,2.22,23.92,23.92,0,0,0,2.81.07,23.8,23.8,0,0,0,2.8-.07,6.51,6.51,0,0,0,1.63-.3,3.69,3.69,0,0,0,2.21-3.55,23.92,23.92,0,0,0,.07-2.81,23.8,23.8,0,0,0-.07-2.8,4.32,4.32,0,0,0-.3-1.63,3.67,3.67,0,0,0-3.55-2.21c-.88-.08-1.84-.08-2.73-.08ZM8.49,14c-.88,0-1.84,0-2.73-.07a3.78,3.78,0,0,1-1.25-.22,6,6,0,0,1-.74-.44,3.08,3.08,0,0,1-.52-.82A3.33,3.33,0,0,1,3,11.23,22.74,22.74,0,0,1,3,8.49,22.63,22.63,0,0,1,3,5.76,3.63,3.63,0,0,1,3.25,4.5a2.26,2.26,0,0,1,.44-.73,1.94,1.94,0,0,1,.74-.45A3.59,3.59,0,0,1,5.69,3.1C6.57,3,7.53,3,8.42,3s1.85,0,2.73.07a3.84,3.84,0,0,1,1.26.22,6.36,6.36,0,0,1,.74.45,2,2,0,0,1,.44.73,3.42,3.42,0,0,1,.22,1.26A11.41,11.41,0,0,1,14,8.49c0,.89,0,1.85-.08,2.74a3.78,3.78,0,0,1-.22,1.25,6,6,0,0,1-.44.74,3.08,3.08,0,0,1-.82.52,3.33,3.33,0,0,1-1.25.22c-.89.08-1.85.08-2.74.08Zm0-9A3.53,3.53,0,0,0,5,8.49,3.48,3.48,0,1,0,8.49,5Zm3.55-1a.82.82,0,1,0,.81.82.75.75,0,0,0-.65-.82ZM8.49,10.71a2.22,2.22,0,1,1,2.22-2.22,2.14,2.14,0,0,1-2.05,2.22Z"/></svg>