<svg id="Layer_1" data-name="Layer 1" xmlns="http://www.w3.org/2000/svg" viewBox="0 0 30 32.73"><defs><style>.cls-1{fill:none;}.cls-2{fill:#ff2116;}.cls-3{fill:#fff;}</style></defs><title>Artboard 1</title><rect class="cls-1" x="4.19" y="27.49" width="21.62" height="3.25"/><path class="cls-1" d="M25.81,6.41,21.39,2H4.19V17.49H25.81ZM7.19,5.29h10.6a1,1,0,0,1,0,2H7.19a1,1,0,0,1,0-2Zm15,8.1h-15a1,1,0,0,1,0-2h15a1,1,0,0,1,0,2Z"/><path class="cls-2" d="M15.81,20.93A2,2,0,0,0,15,20.8h-.83v3H15a3.77,3.77,0,0,0,.67,0A.53.53,0,0,0,16,23.6a.48.48,0,0,0,.1-.35V21.38A.49.49,0,0,0,15.81,20.93Z"/><path class="cls-2" d="M10.39,20.87a1.85,1.85,0,0,0-.62-.07H9.09v1.54h.69a1.23,1.23,0,0,0,.6-.1.36.36,0,0,0,.18-.34v-.73A.3.3,0,0,0,10.39,20.87Z"/><path class="cls-2" d="M29,17.49H27.81V6a1,1,0,0,0-.3-.71l-5-5a1,1,0,0,0-.7-.29H3.19a1,1,0,0,0-1,1V17.49H1a1,1,0,0,0-1,1v8a1,1,0,0,0,1,1H2.19v4.24a1,1,0,0,0,1,1H26.81a1,1,0,0,0,1-1V27.49H29a1,1,0,0,0,1-1v-8A1,1,0,0,0,29,17.49ZM4.19,2h17.2l4.42,4.41V17.49H4.19ZM22,21.91v.78H19.81v1.88h-1.1V20h3.54v.78H19.81v1.11Zm-4.86-.51v1.85a1.33,1.33,0,0,1-.2.8,1.09,1.09,0,0,1-.66.4,5.5,5.5,0,0,1-1.28.12H13.08V20H15a4.91,4.91,0,0,1,1.26.13,1.12,1.12,0,0,1,.68.42A1.36,1.36,0,0,1,17.16,21.4Zm-5.55-.33v.86a1,1,0,0,1-.8,1.06,4.67,4.67,0,0,1-1.12.1h-.6v1.48H8V20H9.82a5.33,5.33,0,0,1,1,.1.83.83,0,0,1,.74.95Zm14.2,9.66H4.19V27.49H25.81Z"/><path class="cls-3" d="M9.82,20H8v4.55H9.09V23.09h.6a4.67,4.67,0,0,0,1.12-.1,1,1,0,0,0,.8-1.06v-.86a.83.83,0,0,0-.74-.95A5.33,5.33,0,0,0,9.82,20Zm.74,1.88a.36.36,0,0,1-.18.34,1.23,1.23,0,0,1-.6.1H9.09V20.8h.68a1.85,1.85,0,0,1,.62.07.3.3,0,0,1,.17.3Z"/><path class="cls-3" d="M15,20H13.08v4.55H15a5.5,5.5,0,0,0,1.28-.12,1.09,1.09,0,0,0,.66-.4,1.33,1.33,0,0,0,.2-.8V21.4a1.36,1.36,0,0,0-.21-.83,1.12,1.12,0,0,0-.68-.42A4.91,4.91,0,0,0,15,20Zm1.06,3.23a.48.48,0,0,1-.1.35.53.53,0,0,1-.33.15,3.77,3.77,0,0,1-.67,0h-.8v-3H15a2,2,0,0,1,.81.13.49.49,0,0,1,.26.45Z"/><polygon class="cls-3" points="22.25 20.8 22.25 20.02 18.71 20.02 18.71 24.57 19.81 24.57 19.81 22.69 22.02 22.69 22.02 21.91 19.81 21.91 19.81 20.8 22.25 20.8"/><path class="cls-2" d="M7.19,7.29h10.6a1,1,0,0,0,0-2H7.19a1,1,0,0,0,0,2Z"/><path class="cls-2" d="M22.19,11.39h-15a1,1,0,0,0,0,2h15a1,1,0,0,0,0-2Z"/></svg>