<svg id="Layer_1" data-name="Layer 1" xmlns="http://www.w3.org/2000/svg" viewBox="0 0 26.78 34.99"><path class="cls-2" d="M26.74,31.15a2.42,2.42,0,0,0-.31-.95l-3.7-6.62a3.19,3.19,0,0,0-3.53-1.53l-1.92.48a2.16,2.16,0,0,1-2.4-1l-3.23-5.78A2.15,2.15,0,0,1,12,13.13l1.42-1.4A3.18,3.18,0,0,0,14,7.93L10.26,1.31a2.57,2.57,0,0,0-3.49-1A2.79,2.79,0,0,0,6,1L1,7.4A4.13,4.13,0,0,0,.6,12L12.28,32.85A4.13,4.13,0,0,0,15.9,35l.49,0,8.11-1a2.6,2.6,0,0,0,1.71-1A2.57,2.57,0,0,0,26.74,31.15Zm-2.1.65a.56.56,0,0,1-.38.21l-8.11,1A2.15,2.15,0,0,1,14,31.88L2.34,11a2.15,2.15,0,0,1,.19-2.38L7.58,2.22a.55.55,0,0,1,.17-.14.54.54,0,0,1,.76.21l3.71,6.62a1.15,1.15,0,0,1-.2,1.4L10.61,11.7a4.17,4.17,0,0,0-.71,5l3.24,5.78a4.15,4.15,0,0,0,4.62,2L19.68,24a1.15,1.15,0,0,1,1.3.56l3.71,6.62a.65.65,0,0,1,.07.21A.62.62,0,0,1,24.64,31.8Z"/></svg>