<svg id="Layer_1" data-name="Layer 1" xmlns="http://www.w3.org/2000/svg" viewBox="0 0 30 32.73"><defs><style>.cls-1{fill:none;}.cls-2{fill:#d04423;}.cls-3{fill:#fff;}</style></defs><title>Artboard 1</title><path class="cls-1" d="M25.81,6.41,21.39,2H4.19V17.49H25.81ZM7.19,5.29h10.6a1,1,0,0,1,0,2H7.19a1,1,0,0,1,0-2Zm15,8.1h-15a1,1,0,0,1,0-2h15a1,1,0,0,1,0,2Z"/><rect class="cls-1" x="4.19" y="27.49" width="21.62" height="3.25"/><path class="cls-2" d="M10.64,20.87A1.85,1.85,0,0,0,10,20.8H9.34v1.54H10a1.23,1.23,0,0,0,.6-.1.36.36,0,0,0,.18-.34v-.73A.3.3,0,0,0,10.64,20.87Z"/><path class="cls-2" d="M15.72,20.87a1.85,1.85,0,0,0-.62-.07h-.68v1.54h.69a1.21,1.21,0,0,0,.6-.1.36.36,0,0,0,.18-.34v-.73A.29.29,0,0,0,15.72,20.87Z"/><path class="cls-2" d="M29,17.49H27.81V6a1,1,0,0,0-.3-.71l-5-5a1,1,0,0,0-.7-.29H3.19a1,1,0,0,0-1,1V17.49H1a1,1,0,0,0-1,1v8a1,1,0,0,0,1,1H2.19v4.24a1,1,0,0,0,1,1H26.81a1,1,0,0,0,1-1V27.49H29a1,1,0,0,0,1-1v-8A1,1,0,0,0,29,17.49ZM4.19,2h17.2l4.42,4.41V17.49H4.19Zm14,18.8V20H22.1v.77H20.71v3.77H19.62V20.8ZM17,21.07v.86a1.17,1.17,0,0,1-.2.7,1.1,1.1,0,0,1-.6.36,4.76,4.76,0,0,1-1.13.1h-.6v1.48H13.33V20h1.82a5.33,5.33,0,0,1,1,.1,1,1,0,0,1,.57.31A1,1,0,0,1,17,21.07Zm-5.08,0v.86a1.17,1.17,0,0,1-.2.7,1.1,1.1,0,0,1-.6.36,4.76,4.76,0,0,1-1.13.1h-.6v1.48H8.25V20h1.82a5.33,5.33,0,0,1,1,.1,1,1,0,0,1,.57.31A1,1,0,0,1,11.87,21.07Zm13.94,9.66H4.19V27.49H25.81Z"/><path class="cls-3" d="M10.07,20H8.25v4.55H9.34V23.09h.6a4.76,4.76,0,0,0,1.13-.1,1.1,1.1,0,0,0,.6-.36,1.17,1.17,0,0,0,.2-.7v-.86a1,1,0,0,0-.18-.64,1,1,0,0,0-.57-.31A5.33,5.33,0,0,0,10.07,20Zm.74,1.88a.36.36,0,0,1-.18.34,1.23,1.23,0,0,1-.6.1H9.34V20.8H10a1.85,1.85,0,0,1,.62.07.3.3,0,0,1,.17.3Z"/><path class="cls-3" d="M15.15,20H13.33v4.55h1.09V23.09H15a4.76,4.76,0,0,0,1.13-.1,1.1,1.1,0,0,0,.6-.36,1.17,1.17,0,0,0,.2-.7v-.86a1,1,0,0,0-.18-.64,1,1,0,0,0-.57-.31A5.33,5.33,0,0,0,15.15,20Zm.74,1.88a.36.36,0,0,1-.18.34,1.21,1.21,0,0,1-.6.1h-.69V20.8h.68a1.85,1.85,0,0,1,.62.07.29.29,0,0,1,.17.3Z"/><polygon class="cls-3" points="20.71 24.57 20.71 20.8 22.1 20.8 22.1 20.02 18.22 20.02 18.22 20.8 19.62 20.8 19.62 24.57 20.71 24.57"/><path class="cls-2" d="M7.19,7.29h10.6a1,1,0,0,0,0-2H7.19a1,1,0,0,0,0,2Z"/><path class="cls-2" d="M22.19,11.39h-15a1,1,0,0,0,0,2h15a1,1,0,0,0,0-2Z"/></svg>