<svg id="Layer_1" data-name="Layer 1" xmlns="http://www.w3.org/2000/svg" viewBox="0 0 18.76 11.67"><path class="cls-1" d="M15.58,5.79S18,2.2,18.27,1c.09-.41-.08-.65-.49-.65H15.66a.78.78,0,0,0-.81.57,17.64,17.64,0,0,1-2.61,4.16c-.49.49-.66.65-.9.65S11,5.55,11,5.06V.9c0-.57-.08-.73-.49-.73H7.1a.44.44,0,0,0-.33.08c-.08.08-.16.16-.16.24,0,.57.82.66.82,2.12v3c0,.57,0,.82-.33.82-.73,0-2.53-2.62-3.51-5.63C3.43.16,3.18,0,2.61,0H.49A.62.62,0,0,0,.08.16C.08.41,0,.57,0,.73c0,.58.65,3.35,3.35,7,1.79,2.45,4.07,3.83,6.2,3.83,1.3,0,1.55-.24,1.55-.81V8.89c0-.49.16-.65.4-.65s.82.08,2,1.39c1.47,1.38,1.55,2,2.29,2h2.44c.25,0,.49-.09.49-.57S18,9.55,17,8.32a9.33,9.33,0,0,0-1.39-1.55.66.66,0,0,1,0-.94S15.57,5.8,15.58,5.79Z"/></svg>