<svg id="Layer_1" data-name="Layer 1" xmlns="http://www.w3.org/2000/svg" viewBox="0 0 30 32.73"><defs><style>.cls-1{fill:none;}.cls-2{fill:#1f7145;}.cls-3{fill:#fff;}</style></defs><title>Artboard 1</title><rect class="cls-1" x="4.19" y="27.49" width="21.62" height="3.25"/><path class="cls-1" d="M25.81,6.41,21.39,2H4.19V17.49H25.81ZM7.19,5.29h10.6a1,1,0,0,1,0,2H7.19a1,1,0,0,1,0-2Zm15,8.1h-15a1,1,0,0,1,0-2h15a1,1,0,0,1,0,2Z"/><path class="cls-2" d="M29,17.49H27.81V6a1,1,0,0,0-.3-.71l-5-5a1,1,0,0,0-.7-.29H3.19a1,1,0,0,0-1,1V17.49H1a1,1,0,0,0-1,1v8a1,1,0,0,0,1,1H2.19v4.24a1,1,0,0,0,1,1H26.81a1,1,0,0,0,1-1V27.49H29a1,1,0,0,0,1-1v-8A1,1,0,0,0,29,17.49ZM4.19,2h17.2l4.42,4.41V17.49H4.19ZM19.55,23.79v.78H16.23V20h1.09v3.77ZM10.35,20h1.26l1,1.52,1-1.52h1.26l-1.6,2.23,1.68,2.32H13.62l-1-1.61-1,1.61H10.28L12,22.25ZM25.81,30.73H4.19V27.49H25.81Z"/><polygon class="cls-3" points="11.54 24.57 12.58 22.96 13.62 24.57 14.89 24.57 13.21 22.25 14.81 20.02 13.55 20.02 12.58 21.54 11.61 20.02 10.35 20.02 11.95 22.25 10.28 24.57 11.54 24.57"/><polygon class="cls-3" points="16.23 20.02 16.23 24.57 19.55 24.57 19.55 23.79 17.32 23.79 17.32 20.02 16.23 20.02"/><path class="cls-2" d="M7.19,7.29h10.6a1,1,0,0,0,0-2H7.19a1,1,0,0,0,0,2Z"/><path class="cls-2" d="M22.19,11.39h-15a1,1,0,0,0,0,2h15a1,1,0,0,0,0-2Z"/></svg>