<svg id="Layer_1" data-name="Layer 1" xmlns="http://www.w3.org/2000/svg" viewBox="0 0 18.58 13.59"><path class="cls-2" d="M18.44,2.91h0A4.09,4.09,0,0,0,17.72,1,2.64,2.64,0,0,0,15.85.16C13.27,0,9.3,0,9.3,0S5.42,0,2.75.16A2.63,2.63,0,0,0,.89,1,4,4,0,0,0,.16,2.91C.08,4,0,5,0,6.07V7.52c0,1.05.08,2.1.16,3.16a4,4,0,0,0,.73,1.94,3.21,3.21,0,0,0,2,.81c1.46.16,6.31.16,6.31.16s3.88,0,6.55-.24a2.6,2.6,0,0,0,1.86-.81,4,4,0,0,0,.73-1.94c.08-1.06.16-2.1.16-3.16V6A12.7,12.7,0,0,0,18.44,2.91ZM7.44,9.3V3.8l5,2.75Z"/></svg>