<svg xmlns="http://www.w3.org/2000/svg" width="164.5" height="45.4" viewBox="0 0 164.5 45.4">
  <g id="logo" transform="translate(-0.2 -0.3)">
    <path id="Path_2526" data-name="Path 2526" d="M162.7,45.7H.2L2.1,31.4H164.7Z" fill="#315248"/>
    <path id="Path_2527" data-name="Path 2527" d="M7.4,35.9H6.6l-2,5.3H5.7l.5-1.3H7.9l.5,1.3H9.6L7.4,35.9ZM7,37.5a3.933,3.933,0,0,0,.2.6l.3.9H6.4l.3-.9c.2-.3.2-.5.3-.6" fill="#f2f4f5"/>
    <path id="Path_2528" data-name="Path 2528" d="M14.4,41.2l-1.1-2.1c-.2-.3-.3-.5-.5-.6.3-.2.4-.6.6-1,.1-.2.1-.3.2-.5.1-.1.2-.2.3-.2a.367.367,0,0,1,.3.1h.1v-1h0a1.087,1.087,0,0,0-.5-.1,1.217,1.217,0,0,0-1,.6,4.875,4.875,0,0,0-.3.7c-.2.5-.4,1-.8,1h-.4V35.9H10.2v5.3h1.1V39H12c.1,0,.2.1.5.5l.8,1.7Z" fill="#f2f4f5"/>
    <path id="Path_2529" data-name="Path 2529" d="M18.6,41.2h1.2l-2.1-5.3h-.8l-2,5.3H16l.5-1.3h1.7Zm-1.4-3.7a3.933,3.933,0,0,0,.2.6l.3.9H16.6l.3-.9a1.546,1.546,0,0,0,.3-.6" fill="#f2f4f5"/>
    <path id="Path_2530" data-name="Path 2530" d="M25.3,42.7V40.3h-.7V36H22v.1a9.694,9.694,0,0,1-1.4,4.3h-.4v2.4h1V41.3h3.1v1.5h1Zm-1.7-5.9v3.4H21.7a9.709,9.709,0,0,0,1.1-3.4Z" fill="#f2f4f5"/>
    <path id="Path_2531" data-name="Path 2531" d="M29.1,40.3H27.2V39h1.6v-.9H27.2V36.8h1.6l.3-.9h-3v5.3h3Z" fill="#f2f4f5"/>
    <path id="Path_2532" data-name="Path 2532" d="M31.1,38.2v-.4c.1.1.1.2.2.2l.1.1,1.1,1.6H33l1-1.6c0-.1.1-.2.2-.4v3.4h1.1V35.8h-1L33,37.7a5.922,5.922,0,0,1-.4.6,1.756,1.756,0,0,0-.4-.5l-1.4-2h-1v5.3h1.1V38.2Z" fill="#f2f4f5"/>
    <path id="Path_2533" data-name="Path 2533" d="M40.1,38.2v3h1.1V35.9h-1L38,38.8v.1a2.092,2.092,0,0,0-.4.6V36H36.5v5.3h.9l2.2-3a1.756,1.756,0,0,1,.4-.5c0-.1.1-.1.1-.2q0,.3,0,.6" fill="#f2f4f5"/>
    <path id="Path_2534" data-name="Path 2534" d="M44.8,41.2h1.1V35.9H44.2a1.583,1.583,0,0,0-1.8,1.6,1.441,1.441,0,0,0,.8,1.3.918.918,0,0,0-.4.6l-.9,1.8h1.2l.7-1.5c.2-.4.3-.5.4-.5h.7v2Zm-.4-2.9c-.4,0-.9-.1-.9-.7,0-.5.3-.8.9-.8h.5v1.5Z" fill="#f2f4f5"/>
    <path id="Path_2535" data-name="Path 2535" d="M49.5,41.2l1.3-1.9L52,41.2h1.2l-1.7-2.7,1.8-2.6H52.1l-1.3,1.8-1.1-1.8H48.4l1.8,2.6-1.9,2.7Z" fill="#f2f4f5"/>
    <path id="Path_2536" data-name="Path 2536" d="M56,41.3a2.7,2.7,0,1,0-2.7-2.7A2.688,2.688,0,0,0,56,41.3m0-4.5c.9,0,1.5.7,1.5,1.8s-.6,1.8-1.5,1.8-1.5-.7-1.5-1.8.6-1.8,1.5-1.8" fill="#f2f4f5"/>
    <path id="Path_2537" data-name="Path 2537" d="M62.7,39.1c-.2-.3-.3-.5-.5-.6.3-.2.4-.6.6-1,.1-.2.1-.3.2-.5.1-.1.2-.2.3-.2a.367.367,0,0,1,.3.1h.1v-1h0a1.087,1.087,0,0,0-.5-.1,1.217,1.217,0,0,0-1,.6,4.875,4.875,0,0,0-.3.7c-.2.5-.4,1-.8,1h-.4V35.9H59.6v5.3h1.1V39h.7c.1,0,.2.1.5.5l.8,1.7h1.2Z" fill="#f2f4f5"/>
    <path id="Path_2538" data-name="Path 2538" d="M65.6,39h.7c.1,0,.2.1.5.5l.8,1.7h1.2l-1.1-2.1c-.2-.3-.3-.5-.5-.6.3-.2.4-.6.6-1,.1-.2.1-.3.2-.5.1-.1.2-.2.3-.2a.367.367,0,0,1,.3.1h.1v-1h0a1.087,1.087,0,0,0-.5-.1,1.217,1.217,0,0,0-1,.6,4.876,4.876,0,0,0-.3.7c-.2.5-.4,1-.8,1h-.4V35.9H64.6v5.3h1.1V39Z" fill="#f2f4f5"/>
    <path id="Path_2539" data-name="Path 2539" d="M72.1,36.8l.3-.9h-3v5.3h3v-.9h-2V39h1.7v-.9H70.4V36.8Z" fill="#f2f4f5"/>
    <path id="Path_2540" data-name="Path 2540" d="M75.3,35.9a1.583,1.583,0,0,0-1.8,1.6,1.441,1.441,0,0,0,.8,1.3.918.918,0,0,0-.4.6L73,41.2h1.2l.7-1.5c.2-.4.3-.5.4-.5H76v2h1V35.9Zm.2,2.4c-.4,0-.9-.1-.9-.7,0-.5.3-.8.9-.8H76v1.5Z" fill="#f2f4f5"/>
    <path id="Path_2541" data-name="Path 2541" d="M81.3,39.2a1.381,1.381,0,0,0-.3.4V37.2H80v4h.9L82.5,39c.1-.1.2-.2.2-.3h0v2.5h1v-4h-.9Z" fill="#f2f4f5"/>
    <path id="Path_2542" data-name="Path 2542" d="M87.3,38.6c-.1.2-.2.3-.2.4a1.381,1.381,0,0,1-.3-.4l-1-1.4H85v4h1V38.8a.1.1,0,0,0,.1.1l.8,1.2h.4l.8-1.2.1-.1v2.4h1v-4h-.8Z" fill="#f2f4f5"/>
    <path id="Path_2543" data-name="Path 2543" d="M99.5,36a2.31,2.31,0,0,0-2.4,2.1h-.9v-2H95v5.2h1.2V39.2h.9a2.4,2.4,0,0,0,2.4,2.2,2.317,2.317,0,0,0,2.4-2.6c0-1.6-.9-2.8-2.4-2.8m0,4.2c-.7,0-1.2-.6-1.2-1.6s.4-1.6,1.2-1.6c.7,0,1.2.6,1.2,1.6,0,1.1-.4,1.6-1.2,1.6" fill="#f2f4f5"/>
    <path id="Path_2544" data-name="Path 2544" d="M103.1,39.9c-.4,0-.6.3-.6.7a.669.669,0,0,0,.6.7.684.684,0,0,0,.7-.7.842.842,0,0,0-.7-.7" fill="#f2f4f5"/>
    <path id="Path_2545" data-name="Path 2545" d="M91,39.9c-.4,0-.6.3-.6.7a.669.669,0,0,0,.6.7.684.684,0,0,0,.7-.7c-.1-.4-.3-.7-.7-.7" fill="#f2f4f5"/>
    <path id="Path_2546" data-name="Path 2546" d="M106.3,38.7c-.1.2-.2.3-.3.5V36h-1.2v5.2h1.1l2.1-2.8c.1-.1.2-.3.3-.4h0v3.2h1.2V36h-1.2Z" fill="#f2f4f5"/>
    <path id="Path_2547" data-name="Path 2547" d="M111.1,39.9c-.4,0-.6.3-.6.7a.669.669,0,0,0,.6.7.7.7,0,0,0,0-1.4" fill="#f2f4f5"/>
    <path id="Path_2548" data-name="Path 2548" d="M118.4,37.9a2.186,2.186,0,0,1-.3.5c-.1-.2-.2-.3-.3-.5l-1.3-1.8h-1.1v5.2h1.2v-3c0,.1.1.1.1.2l1.1,1.5h.6l1-1.5a.349.349,0,0,0,.1-.2v3.1h1.2V36h-1.1Z" fill="#f2f4f5"/>
    <path id="Path_2549" data-name="Path 2549" d="M124.6,36a2.6,2.6,0,0,0,0,5.2,2.6,2.6,0,1,0,0-5.2m0,1c.8,0,1.3.6,1.3,1.6s-.5,1.6-1.3,1.6-1.3-.6-1.3-1.6a1.311,1.311,0,0,1,1.3-1.6" fill="#f2f4f5"/>
    <path id="Path_2550" data-name="Path 2550" d="M130,38.7c-.1.2-.2.3-.3.5V36h-1.2v5.2h1.1l2.1-2.8c.1-.1.2-.3.3-.4h0v3.2h1.2V36H132Z" fill="#f2f4f5"/>
    <path id="Path_2551" data-name="Path 2551" d="M138.5,39.9a2.144,2.144,0,0,1-1.2.4,1.446,1.446,0,0,1-1.5-1.6,1.486,1.486,0,0,1,1.5-1.6,2.768,2.768,0,0,1,1.3.3l.1.1V36.3h-.1a4.141,4.141,0,0,0-1.4-.2,2.653,2.653,0,0,0-2.8,2.7,2.445,2.445,0,0,0,2.7,2.6,3.287,3.287,0,0,0,1.7-.4h.1l-.4-1.1Z" fill="#f2f4f5"/>
    <path id="Path_2552" data-name="Path 2552" d="M142.8,37.1l.3-1.1h-3v5.2h3V40.1h-1.8v-1h1.6v-1h-1.6v-1Z" fill="#f2f4f5"/>
    <path id="Path_2553" data-name="Path 2553" d="M147.2,37.1l.4-1.1h-3.1v5.2h3V40.1h-1.8v-1h1.6v-1h-1.6v-1Z" fill="#f2f4f5"/>
    <path id="Path_2554" data-name="Path 2554" d="M151.7,38.4a1.231,1.231,0,0,0,.5-1c0-.7-.5-1.4-1.7-1.4h-1.7v5.2h1.8a1.671,1.671,0,0,0,1.9-1.6,1.206,1.206,0,0,0-.8-1.2m-1.3-.3h-.3v-1h.3c.4,0,.6.2.6.5s-.2.5-.6.5m-.3,1h.5c.2,0,.7.1.7.5,0,.3-.1.6-.8.6h-.4Z" fill="#f2f4f5"/>
    <path id="Path_2555" data-name="Path 2555" d="M155.2,36l-2,5.2h1.3L155,40h1.6l.5,1.2h1.3L156.3,36Zm.5,1.8a4.331,4.331,0,0,1,.1.5l.3.7h-.8l.3-.7a4.331,4.331,0,0,1,.1-.5" fill="#f2f4f5"/>
    <path id="Path_2556" data-name="Path 2556" d="M50.4,3.1,45.3.7l3.1,2.6Z" fill="#315248"/>
    <path id="Path_2557" data-name="Path 2557" d="M35.8,2.5,31.4.7l2.9,2.4Z" fill="#315248"/>
    <path id="Path_2558" data-name="Path 2558" d="M42.2.7,40.6,2.2l-1.3,9.5,1.6-1.5Z" fill="#315248"/>
    <path id="Path_2559" data-name="Path 2559" d="M58.8.7,55.9,2.2,47.2,13.3l6.2,12H48.1l-.9,1.5h8.5L48.9,13.4Z" fill="#315248"/>
    <path id="Path_2560" data-name="Path 2560" d="M37.5,25.3H32.8l-1.6,1.5h7.5L40,17.1h2.4l.9-1.4H38.8Z" fill="#315248"/>
    <path id="Path_2561" data-name="Path 2561" d="M132.9,7.2c0,.1.1-.1,0,0" fill="#315248"/>
    <path id="Path_2562" data-name="Path 2562" d="M126,7.4h3.2a3.707,3.707,0,0,1,2.7.8l1-1a4.638,4.638,0,0,0-3.7-1.3h-4.4l-.2,1.3v.1l-.8,6.2,1.6-1.3Z" fill="#315248"/>
    <path id="Path_2563" data-name="Path 2563" d="M140,6.7a6.132,6.132,0,0,0-2.5-4.2l-1,1a2.7,2.7,0,0,1,.8.7,5.451,5.451,0,0,1,1.3,4.3,4.1,4.1,0,0,1-.1,1.1c-.4,3.3-1.9,5.5-4.6,6.7a17.266,17.266,0,0,1-6.5,1.1h-4.1l-1,7.9h-4.8l-1.6,1.4h7.6l1-7.9h2.8a16.385,16.385,0,0,0,7.1-1.3q4.8-2.1,5.4-7.8a1.978,1.978,0,0,0,.2-1.1,12.051,12.051,0,0,0,0-1.9" fill="#315248"/>
    <path id="Path_2564" data-name="Path 2564" d="M120.5,2.6,116,.7l3,2.5Z" fill="#315248"/>
    <path id="Path_2565" data-name="Path 2565" d="M77.7,16.3c1.6,0,2.4.4,2.6,1.4v-.1l1.1-1.1a1.38,1.38,0,0,0-.3-.4A4.39,4.39,0,0,0,77.7,15H72.6l-.8,6.6,1.6-1.4.5-3.8h3.8Z" fill="#315248"/>
    <path id="Path_2566" data-name="Path 2566" d="M86.3,11.7l-.1-.1-1,1c.1.1.1.1.2.1,1.2,1.1,1.7,2.9,1.4,5.2-.6,4.9-3.9,7.3-9.7,7.3H66.3l-1.6,1.4H77.1c6.6,0,10.4-3,11.1-8.6.3-2.7-.3-4.8-1.9-6.3" fill="#315248"/>
    <path id="Path_2567" data-name="Path 2567" d="M86.1,6.1H73.7l-.6,5,1.6-1.5.2-1.3V7.6H87.4L87.8,4,88.2.7,86.6,2.2Z" fill="#315248"/>
    <path id="Path_2568" data-name="Path 2568" d="M64.9.8l2.9,2.4,1.5-.6Z" fill="#315248"/>
    <path id="Path_2569" data-name="Path 2569" d="M15.6,3.2,10.4.7l3.4,2.9Z" fill="#315248"/>
    <path id="Path_2570" data-name="Path 2570" d="M14.5,16.5l3.3-6.7a4.875,4.875,0,0,0,.3-.7l.6-4.8L12.3,17.8Z" fill="#315248"/>
    <path id="Path_2571" data-name="Path 2571" d="M23.1.7,22,2.2l6,23.1H23.2l-.9-3.9H10.5L8.6,25.3H4L1.6,26.8H9.4l2-4h9.8l.9,4h7.8Z" fill="#315248"/>
    <path id="Path_2572" data-name="Path 2572" d="M107.8.7l-1.1,1.5,6.1,23.1h-4.9l-.9-3.9H95.2l-1.9,3.9H88.7l-2.3,1.5h7.8l1.9-4h9.8l.9,4h7.8Z" fill="#315248"/>
    <path id="Path_2573" data-name="Path 2573" d="M95.1.7l3.5,2.9,1.7-.4Z" fill="#315248"/>
    <path id="Path_2574" data-name="Path 2574" d="M102.5,9.9a4.876,4.876,0,0,0,.3-.7l.6-4.8L97,17.9l2.3-1.4Z" fill="#315248"/>
    <path id="Path_2575" data-name="Path 2575" d="M162.4,2.8l-.5,4a11.124,11.124,0,0,0-5.2-1.3,10.413,10.413,0,0,0-6.5,2.2l.8,1.1a9.028,9.028,0,0,1,5.6-1.9,8.417,8.417,0,0,1,5.6,1.9l.7.6.9-7.5Z" fill="#315248"/>
    <path id="Path_2576" data-name="Path 2576" d="M146.1,3.7h0a11.435,11.435,0,0,0-2.4,2.5,11.434,11.434,0,0,1,2.4-2.5" fill="#315248"/>
    <path id="Path_2577" data-name="Path 2577" d="M160.3,20.8l-.5,3.8a16.679,16.679,0,0,1-6.7,1.3,16.842,16.842,0,0,1-4-.5,11.434,11.434,0,0,1-4-1.9,10.95,10.95,0,0,1-1.1-1c-1.7-2-2.4-4.7-2-8.1a14.246,14.246,0,0,1,5.1-9.6l-1-1a11.435,11.435,0,0,0-2.4,2.5,8.65,8.65,0,0,0-.7,1c-.3.5-.6,1.1-.9,1.7a5.94,5.94,0,0,1-.4.8,18.537,18.537,0,0,0-1.1,4.5,10.868,10.868,0,0,0-.1,1.8,14.823,14.823,0,0,0,.3,3.1,7.367,7.367,0,0,0,.4,1.4,8.36,8.36,0,0,0,1.2,2.3,9.763,9.763,0,0,0,1.7,1.8,8.65,8.65,0,0,0,1,.7c.3.2.6.3.9.5.1,0,.1.1.2.1a4.179,4.179,0,0,0,1,.4c.1,0,.2.1.3.1.3.1.5.2.8.3.1,0,.1,0,.2.1h0a15.943,15.943,0,0,0,4.8.7A18.329,18.329,0,0,0,161,26l.3-.1,1-7.8Z" fill="#315248"/>
    <path id="Path_2578" data-name="Path 2578" d="M86.1,11.6Z" fill="#4d8565"/>
    <path id="Path_2579" data-name="Path 2579" d="M161.9,6.8l.5-4,1.5-.8-.2-.1A15.683,15.683,0,0,0,156.4.3a16.261,16.261,0,0,0-10.3,3.5l1,1c-2.6,2-4.5,5.1-5.1,9.6-.4,3.4.2,6.1,2,8.1a5.241,5.241,0,0,0,1.1,1,10.6,10.6,0,0,0,4,1.9,16.842,16.842,0,0,0,4,.5,17.02,17.02,0,0,0,6.7-1.3l.5-3.8,1.8-3-.9.7a9.946,9.946,0,0,1-6.3,2.1,7.349,7.349,0,0,1-5.2-1.8,5.021,5.021,0,0,1-1.4-4.7,7.612,7.612,0,0,1,2.8-5.3l-.8-1.1a10.627,10.627,0,0,1,6.5-2.2,11.029,11.029,0,0,1,5.1,1.3" fill="#4d8565"/>
    <path id="Path_2580" data-name="Path 2580" d="M85.1,12.6l1-1h0a7.844,7.844,0,0,0-1.8-1.1h0a4.875,4.875,0,0,0-.7-.3h-.1a6.373,6.373,0,0,0-.7-.2h-.2c-.2,0-.4-.1-.6-.1a.6.6,0,0,1-.4-.1c-.2,0-.3-.1-.5-.1-.3,0-.6-.1-1-.1H74.6L73,11l.6-4.9H86l.5-4L88.1.7H64.8l4.4,1.8-1.5.6L64.6,26.7l1.6-1.4H77c5.8,0,9.1-2.5,9.7-7.3.3-2.4-.2-4.1-1.4-5.2,0-.1-.1-.1-.2-.2M72.6,14.9h5.1A4.51,4.51,0,0,1,81.1,16c.1.1.2.3.3.4l-1.1,1.1v.9a1.445,1.445,0,0,1-.2.7,2.5,2.5,0,0,1-2.3.9H73.4l-1.6,1.4Z" fill="#4d8565"/>
    <path id="Path_2581" data-name="Path 2581" d="M93.3,25.3l2-3.9H107l.9,3.9h4.8l-6-23.2L107.8.7H95.1l5.2,2.5-1.8.4L86.4,26.8l2.3-1.4h4.6ZM103.4,4.4l-.6,4.8,1.6,7.3H99.2L97,17.9Z" fill="#4d8565"/>
    <path id="Path_2582" data-name="Path 2582" d="M122.3,25.3l1-7.9h4.1a15.4,15.4,0,0,0,6.5-1.2c2.7-1.2,4.2-3.4,4.6-6.7,0-.4.1-.7.1-1a5.848,5.848,0,0,0-1.3-4.3,2.7,2.7,0,0,0-.8-.7l1-1c-1.6-1.2-4-1.8-7.1-1.8H116l4.5,1.9-1.5.6-.5,3.9-2.6,19.7,1.6-1.4h4.8Zm2.3-17.9V7.3l.2-1.3h4.4a4.638,4.638,0,0,1,3.7,1.3c.1-.1.1.1,0,0l-1,1a.758.758,0,0,1,.2.4v.1c0,.2.1.3.1.5v.6a3.374,3.374,0,0,1-.4,1.2h0a3.093,3.093,0,0,1-2.3,1.2h-4.1l-1.6,1.3Z" fill="#4d8565"/>
    <path id="Path_2583" data-name="Path 2583" d="M53.4,25.3l-6.2-12L55.9,2.2,58.8.7H45.3l5.1,2.4-2,.2-5,6.9H40.9l-1.6,1.5,1.3-9.5L42.2.7H31.4l4.4,1.8-1.5.6L31.2,26.8l1.6-1.5h4.7l1.3-9.6h4.5l-.9,1.4,4.8,9.7.9-1.5Z" fill="#4d8565"/>
    <path id="Path_2584" data-name="Path 2584" d="M8.6,25.3l2-3.9H22.4l.9,3.9H28L22,2.2,23.1.8H10.4l5.2,2.5-1.8.4L1.6,26.8,4,25.3ZM18.7,4.4l-.6,4.8,1.6,7.3H14.5l-2.3,1.4Z" fill="#4d8565"/>
  </g>
</svg>
