<svg xmlns="http://www.w3.org/2000/svg" width="146.236" height="49.493" viewBox="0 0 146.236 49.493">
  <g id="Group_717" data-name="Group 717" transform="translate(-1138.721 -48.753)">
    <g id="Group_698" data-name="Group 698" transform="translate(-362.63 -0.194)">
      <g id="Group_65" data-name="Group 65" transform="translate(1504.651 52.248)">
        <g id="Path_9" data-name="Path 9" transform="translate(-265.518 -466.328)" fill="#fff" stroke-linejoin="round" fill-rule="evenodd">
          <path d="M 274.3330688476563 510.2479858398438 C 270.9324340820313 505.9753723144531 269.5774230957031 502.1211547851563 270.1906127929688 498.4650573730469 C 270.7333374023438 495.2291259765625 272.6665954589844 492.7059020996094 274.7703552246094 490.1934204101563 L 274.7960815429688 490.1626586914063 L 274.8233032226563 490.1332092285156 L 274.843017578125 490.1118469238281 C 278.9238891601563 485.6932373046875 282.4482421875 481.877197265625 280.2455139160156 475.8329772949219 L 283.0867614746094 474.2404479980469 C 286.4883422851563 478.5140991210938 287.8427429199219 482.3709411621094 287.2274169921875 486.0313720703125 C 286.6817016601563 489.2778015136719 284.658935546875 491.9022827148438 282.6338806152344 494.3121643066406 L 282.6090087890625 494.3417663574219 L 282.582763671875 494.3701782226563 L 282.5451354980469 494.4109497070313 C 278.4766235351563 498.8158569335938 274.9629516601563 502.6200561523438 277.1733703613281 508.6528015136719 L 274.3330688476563 510.2479858398438 Z" stroke="none"/>
          <path d="M 281.7957763671875 475.2680053710938 C 284.3470458984375 482.2686157226563 280.1911010742188 486.7530517578125 276.0354309082031 491.252685546875 C 272.1813354492188 495.8556518554688 268.7798461914063 500.6212768554688 275.6240844726563 509.220458984375 C 273.0590515136719 502.2199096679688 277.2287902832031 497.735107421875 281.3706665039063 493.2506713867188 C 285.238525390625 488.6477661132813 288.6400146484375 483.866943359375 281.7957763671875 475.2680053710938 M 281.7939758300781 471.9677734375 C 282.7720642089844 471.9677734375 283.7325439453125 472.4022827148438 284.3777465820313 473.2129211425781 C 288.0875854492188 477.8738708496094 289.552001953125 482.1563110351563 288.8545837402344 486.3049011230469 C 288.2400512695313 489.9606628417969 286.0685729980469 492.7895202636719 283.8971252441406 495.3736572265625 C 283.8639526367188 495.4131469726563 283.8298645019531 495.4518127441406 283.7948608398438 495.4897155761719 L 283.7572326660156 495.5304565429688 C 279.3516540527344 500.3003234863281 276.9455871582031 503.2351989746094 278.7226257324219 508.0851440429688 C 279.2796020507813 509.6052551269531 278.651611328125 511.3049621582031 277.2400512695313 512.0977172851563 C 276.7319030761719 512.3831176757813 276.176025390625 512.5206298828125 275.6258850097656 512.5206298828125 C 274.6477966308594 512.5206298828125 273.6873474121094 512.0862426757813 273.0420837402344 511.2755126953125 C 269.3333129882813 506.6157836914063 267.8683166503906 502.3361511230469 268.5633544921875 498.192138671875 C 269.1741027832031 494.550537109375 271.339599609375 491.7206115722656 273.5052490234375 489.1341552734375 C 273.5395812988281 489.0931396484375 273.5748901367188 489.0530090332031 273.6111755371094 489.0137329101563 L 273.6308898925781 488.9923706054688 C 278.0520629882813 484.2052612304688 280.4671936035156 481.2600402832031 278.6952514648438 476.39794921875 C 278.1412963867188 474.8778686523438 278.77099609375 473.1803588867188 280.1823120117188 472.3893432617188 C 280.6898193359375 472.1048583984375 281.2447204589844 471.9677734375 281.7939758300781 471.9677734375 Z" stroke="none" fill="#fff"/>
        </g>
        <g id="Path_10" data-name="Path 10" transform="translate(-250.592 -446.972)" fill="#fff" stroke-linejoin="round" fill-rule="evenodd">
          <path d="M 253.2214813232422 481.9372863769531 C 249.8256225585938 477.66943359375 248.472900390625 473.8176574707031 249.0860443115234 470.161865234375 C 249.6315612792969 466.9093017578125 251.6527404785156 464.2935791015625 253.6761779785156 461.8932189941406 L 253.6994171142578 461.8656311035156 L 253.7238311767578 461.839111328125 L 253.7798156738281 461.7783203125 C 257.8385009765625 457.3699035644531 261.3437194824219 453.5626525878906 259.1481018066406 447.536865234375 L 261.9904174804688 445.9457702636719 C 265.3841857910156 450.2185363769531 266.7348022460938 454.0727233886719 266.119384765625 457.7285766601563 C 265.57470703125 460.9643249511719 263.6415405273438 463.4872436523438 261.5380859375 465.9993896484375 L 261.5123291015625 466.0301818847656 L 261.485107421875 466.0596618652344 L 261.4661865234375 466.0801391601563 C 257.3851013183594 470.4986572265625 253.8605499267578 474.3146057128906 256.0625 480.3439025878906 L 253.2214813232422 481.9372863769531 Z" stroke="none"/>
          <path d="M 260.6983947753906 446.9719848632813 C 263.2493286132813 453.972900390625 259.0799255371094 458.4573669433594 254.937744140625 462.9566650390625 C 251.0698852539063 467.5450439453125 247.6821594238281 472.3255310058594 254.5126342773438 480.9099426269531 C 251.9613647460938 473.9241943359375 256.1173400878906 469.4394226074219 260.2730102539063 464.9401245117188 C 264.1270751953125 460.3371887207031 267.528564453125 455.5712280273438 260.6983947753906 446.9719848632813 M 260.6965942382813 443.6717834472656 C 261.6758728027344 443.6717834472656 262.6372985839844 444.1072387695313 263.282470703125 444.9195251464844 C 266.9837646484375 449.5795288085938 268.4439697265625 453.8589782714844 267.7465209960938 458.0024719238281 C 267.1336059570313 461.6434020996094 264.9683837890625 464.4727478027344 262.8031921386719 467.0586547851563 C 262.7688293457031 467.0997009277344 262.7334899902344 467.1398620605469 262.6972045898438 467.1791687011719 L 262.6782836914063 467.1996459960938 C 258.2572021484375 471.9862670898438 255.8420715332031 474.9305114746094 257.6123962402344 479.7778930664063 C 258.1675720214844 481.2980346679688 257.5384216308594 482.9965209960938 256.1268920898438 483.7881774902344 C 255.6191711425781 484.0729064941406 255.06396484375 484.2101440429688 254.5144348144531 484.2101440429688 C 253.5361633300781 484.2101440429688 252.5755615234375 483.7755432128906 251.9303588867188 482.9646301269531 C 248.2264709472656 478.3096923828125 246.7637939453125 474.0325927734375 247.4587707519531 469.8889465332031 C 248.0732116699219 466.2254333496094 250.2439270019531 463.4048156738281 252.4146118164063 460.8297424316406 C 252.4455871582031 460.7929992675781 252.4773864746094 460.7569274902344 252.5099487304688 460.7215576171875 L 252.5659484863281 460.6607360839844 C 256.9622497558594 455.8855895996094 259.3635864257813 452.9478759765625 257.5978088378906 448.1017456054688 C 257.0437316894531 446.5810852050781 257.6742248535156 444.8830261230469 259.0864562988281 444.0924682617188 C 259.5935668945313 443.80859375 260.14794921875 443.6717834472656 260.6965942382813 443.6717834472656 Z" stroke="none" fill="#fff"/>
        </g>
        <g id="Path_11" data-name="Path 11" transform="translate(-519.444 -508.308)" fill="#fff" stroke-linejoin="round" fill-rule="evenodd">
          <path d="M 655.6817626953125 552.0213012695313 L 654.03173828125 552.0213012695313 L 648.4632568359375 552.0213012695313 L 646.813232421875 552.0213012695313 L 646.813232421875 550.3712768554688 L 646.813232421875 541.2908325195313 L 644.0921630859375 541.2908325195313 L 644.0921630859375 542.3345336914063 L 644.0921630859375 545.3538818359375 L 644.0921630859375 547.00390625 L 642.442138671875 547.00390625 L 637.9613647460938 547.00390625 L 637.9613647460938 550.3712768554688 L 637.9613647460938 552.0213012695313 L 636.3113403320313 552.0213012695313 L 630.7428588867188 552.0213012695313 L 629.0928344726563 552.0213012695313 L 629.0928344726563 550.3712768554688 L 629.0928344726563 536.6362915039063 L 629.0928344726563 534.9862670898438 L 630.7428588867188 534.9862670898438 L 659.0790405273438 534.9862670898438 L 660.7290649414063 534.9862670898438 L 660.7290649414063 536.6362915039063 L 660.7290649414063 539.6408081054688 L 660.7290649414063 541.2908325195313 L 659.0790405273438 541.2908325195313 L 655.6817626953125 541.2908325195313 L 655.6817626953125 550.3712768554688 L 655.6817626953125 552.0213012695313 Z" stroke="none"/>
          <path d="M 630.7428588867188 536.6362915039063 L 630.7428588867188 550.3712768554688 L 636.3113403320313 550.3712768554688 L 636.3113403320313 545.3538818359375 L 642.442138671875 545.3538818359375 L 642.442138671875 542.3345336914063 L 636.3113403320313 542.3345336914063 L 636.3113403320313 539.6408081054688 L 648.4632568359375 539.6408081054688 L 648.4632568359375 550.3712768554688 L 654.03173828125 550.3712768554688 L 654.03173828125 539.6408081054688 L 659.0790405273438 539.6408081054688 L 659.0790405273438 536.6362915039063 L 630.7428588867188 536.6362915039063 M 630.7428588867188 533.3363037109375 L 659.0790405273438 533.3363037109375 C 660.9015502929688 533.3363037109375 662.3790283203125 534.8137817382813 662.3790283203125 536.6362915039063 L 662.3790283203125 539.6408081054688 C 662.3790283203125 541.4633178710938 660.9015502929688 542.9407958984375 659.0790405273438 542.9407958984375 L 657.3317260742188 542.9407958984375 L 657.3317260742188 550.3712768554688 C 657.3317260742188 552.1937866210938 655.8543090820313 553.6712646484375 654.03173828125 553.6712646484375 L 648.4632568359375 553.6712646484375 C 646.6407470703125 553.6712646484375 645.1632690429688 552.1937866210938 645.1632690429688 550.3712768554688 L 645.1632690429688 547.2213745117188 C 644.568359375 548.086669921875 643.571533203125 548.6538696289063 642.442138671875 548.6538696289063 L 639.611328125 548.6538696289063 L 639.611328125 550.3712768554688 C 639.611328125 552.1937866210938 638.1338500976563 553.6712646484375 636.3113403320313 553.6712646484375 L 630.7428588867188 553.6712646484375 C 628.9203491210938 553.6712646484375 627.44287109375 552.1937866210938 627.44287109375 550.3712768554688 L 627.44287109375 536.6362915039063 C 627.44287109375 534.8137817382813 628.9203491210938 533.3363037109375 630.7428588867188 533.3363037109375 Z" stroke="none" fill="#fff"/>
        </g>
        <g id="Path_12" data-name="Path 12" transform="translate(-477.103 -508.308)" fill="#fff" stroke-linejoin="round" fill-rule="evenodd">
          <path d="M 587.5416259765625 552.0213012695313 L 585.8916015625 552.0213012695313 L 570.8732299804688 552.0213012695313 L 569.2232055664063 552.0213012695313 L 569.2232055664063 550.3712768554688 L 569.2232055664063 536.6362915039063 L 569.2232055664063 534.9862670898438 L 570.8732299804688 534.9862670898438 L 585.781982421875 534.9862670898438 L 587.4320068359375 534.9862670898438 L 587.4320068359375 536.6362915039063 L 587.4320068359375 539.6408081054688 L 587.4320068359375 541.2908325195313 L 585.781982421875 541.2908325195313 L 585.3609008789063 541.2908325195313 L 585.3609008789063 542.0089111328125 L 585.3609008789063 545.013427734375 L 585.3609008789063 545.746337890625 L 585.8916015625 545.746337890625 L 587.5416259765625 545.746337890625 L 587.5416259765625 547.3963623046875 L 587.5416259765625 550.3712768554688 L 587.5416259765625 552.0213012695313 Z" stroke="none"/>
          <path d="M 585.8916015625 550.3712768554688 L 585.8916015625 547.3963623046875 L 576.4554443359375 547.3963623046875 L 576.4554443359375 545.013427734375 L 583.7108764648438 545.013427734375 L 583.7108764648438 542.0089111328125 L 576.4554443359375 542.0089111328125 L 576.4554443359375 539.6408081054688 L 585.781982421875 539.6408081054688 L 585.781982421875 536.6362915039063 L 570.8732299804688 536.6362915039063 L 570.8732299804688 550.3712768554688 L 585.8916015625 550.3712768554688 M 585.8916015625 553.6712646484375 L 570.8732299804688 553.6712646484375 C 569.0506591796875 553.6712646484375 567.5732421875 552.1937866210938 567.5732421875 550.3712768554688 L 567.5732421875 536.6362915039063 C 567.5732421875 534.8137817382813 569.0506591796875 533.3363037109375 570.8732299804688 533.3363037109375 L 585.781982421875 533.3363037109375 C 587.6045532226563 533.3363037109375 589.0819702148438 534.8137817382813 589.0819702148438 536.6362915039063 L 589.0819702148438 539.6408081054688 C 589.0819702148438 541.0289306640625 588.2247314453125 542.2169799804688 587.0108642578125 542.7044067382813 L 587.0108642578125 544.291015625 C 588.2825317382813 544.7494506835938 589.1915893554688 545.9667358398438 589.1915893554688 547.3963623046875 L 589.1915893554688 550.3712768554688 C 589.1915893554688 552.1937866210938 587.7141723632813 553.6712646484375 585.8916015625 553.6712646484375 Z" stroke="none" fill="#fff"/>
        </g>
        <g id="Path_13" data-name="Path 13" transform="translate(-428.632 -508.308)" fill="#fff" stroke-linejoin="round" fill-rule="evenodd">
          <path d="M 521.035400390625 552.0213012695313 L 519.3853759765625 552.0213012695313 L 515.2981567382813 552.0213012695313 L 514.7044067382813 552.0213012695313 L 514.246826171875 551.6429443359375 L 507.7999572753906 546.3131103515625 L 507.7999572753906 550.3712768554688 L 507.7999572753906 552.0213012695313 L 506.1499633789063 552.0213012695313 L 502.3370971679688 552.0213012695313 L 500.6871032714844 552.0213012695313 L 500.6871032714844 550.3712768554688 L 500.6871032714844 536.6362915039063 L 500.6871032714844 534.9862670898438 L 502.3370971679688 534.9862670898438 L 506.6574096679688 534.9862670898438 L 507.21923828125 534.9862670898438 L 507.6643371582031 535.3291625976563 L 513.9224853515625 540.1499633789063 L 513.9224853515625 536.6362915039063 L 513.9224853515625 534.9862670898438 L 515.572509765625 534.9862670898438 L 519.3853759765625 534.9862670898438 L 521.035400390625 534.9862670898438 L 521.035400390625 536.6362915039063 L 521.035400390625 550.3712768554688 L 521.035400390625 552.0213012695313 Z" stroke="none"/>
          <path d="M 502.3370971679688 536.6362915039063 L 502.3370971679688 550.3712768554688 L 506.1499633789063 550.3712768554688 L 506.1499633789063 542.8081665039063 L 515.2981567382813 550.3712768554688 L 519.3853759765625 550.3712768554688 L 519.3853759765625 536.6362915039063 L 515.572509765625 536.6362915039063 L 515.572509765625 543.5037841796875 L 506.6574096679688 536.6362915039063 L 502.3370971679688 536.6362915039063 M 502.3370971679688 533.3363037109375 L 506.6574096679688 533.3363037109375 C 507.385986328125 533.3363037109375 508.0940551757813 533.577392578125 508.6712646484375 534.0220336914063 L 512.2724609375 536.796142578125 L 512.2724609375 536.6362915039063 C 512.2724609375 534.8137817382813 513.75 533.3363037109375 515.572509765625 533.3363037109375 L 519.3853759765625 533.3363037109375 C 521.2078857421875 533.3363037109375 522.6853637695313 534.8137817382813 522.6853637695313 536.6362915039063 L 522.6853637695313 550.3712768554688 C 522.6853637695313 552.1937866210938 521.2078857421875 553.6712646484375 519.3853759765625 553.6712646484375 L 515.2981567382813 553.6712646484375 C 514.5306396484375 553.6712646484375 513.7870483398438 553.4036865234375 513.1954345703125 552.9146728515625 L 509.449951171875 549.818115234375 L 509.449951171875 550.3712768554688 C 509.449951171875 552.1937866210938 507.9725341796875 553.6712646484375 506.1499633789063 553.6712646484375 L 502.3370971679688 553.6712646484375 C 500.5145263671875 553.6712646484375 499.037109375 552.1937866210938 499.037109375 550.3712768554688 L 499.037109375 536.6362915039063 C 499.037109375 534.8137817382813 500.5145263671875 533.3363037109375 502.3370971679688 533.3363037109375 Z" stroke="none" fill="#fff"/>
        </g>
        <g id="Path_14" data-name="Path 14" transform="translate(-311.349 -508.308)" fill="#fff" stroke-linejoin="round" fill-rule="evenodd">
          <path d="M 348.6570129394531 552.0213012695313 L 347.0070190429688 552.0213012695313 L 341.4248657226563 552.0213012695313 L 339.7748718261719 552.0213012695313 L 339.7748718261719 550.3712768554688 L 339.7748718261719 541.2908325195313 L 336.5009765625 541.2908325195313 L 334.8509826660156 541.2908325195313 L 334.8509826660156 539.6408081054688 L 334.8509826660156 536.6362915039063 L 334.8509826660156 534.9862670898438 L 336.5009765625 534.9862670898438 L 351.930908203125 534.9862670898438 L 353.5809020996094 534.9862670898438 L 353.5809020996094 536.6362915039063 L 353.5809020996094 539.6408081054688 L 353.5809020996094 541.2908325195313 L 351.930908203125 541.2908325195313 L 348.6570129394531 541.2908325195313 L 348.6570129394531 550.3712768554688 L 348.6570129394531 552.0213012695313 Z" stroke="none"/>
          <path d="M 336.5009765625 536.6362915039063 L 336.5009765625 539.6408081054688 L 341.4248657226563 539.6408081054688 L 341.4248657226563 550.3712768554688 L 347.0070190429688 550.3712768554688 L 347.0070190429688 539.6408081054688 L 351.930908203125 539.6408081054688 L 351.930908203125 536.6362915039063 L 336.5009765625 536.6362915039063 M 336.5009765625 533.3363037109375 L 351.930908203125 533.3363037109375 C 353.7534484863281 533.3363037109375 355.2309265136719 534.8137817382813 355.2309265136719 536.6362915039063 L 355.2309265136719 539.6408081054688 C 355.2309265136719 541.4633178710938 353.7534484863281 542.9407958984375 351.930908203125 542.9407958984375 L 350.3070373535156 542.9407958984375 L 350.3070373535156 550.3712768554688 C 350.3070373535156 552.1937866210938 348.8295593261719 553.6712646484375 347.0070190429688 553.6712646484375 L 341.4248657226563 553.6712646484375 C 339.6023254394531 553.6712646484375 338.1248474121094 552.1937866210938 338.1248474121094 550.3712768554688 L 338.1248474121094 542.9407958984375 L 336.5009765625 542.9407958984375 C 334.6784362792969 542.9407958984375 333.2009582519531 541.4633178710938 333.2009582519531 539.6408081054688 L 333.2009582519531 536.6362915039063 C 333.2009582519531 534.8137817382813 334.6784362792969 533.3363037109375 336.5009765625 533.3363037109375 Z" stroke="none" fill="#fff"/>
        </g>
        <g id="Path_15" data-name="Path 15" transform="translate(-343.983 -508.308)" fill="#fff" stroke-linejoin="round" fill-rule="evenodd">
          <path d="M 405.2195434570313 552.0211791992188 L 402.5323791503906 552.0211791992188 L 396.3603820800781 552.0211791992188 L 395.3255920410156 552.0211791992188 L 394.875 551.089599609375 L 394.187255859375 549.667724609375 L 388.4388732910156 549.667724609375 L 387.7511596679688 551.089599609375 L 387.3005981445313 552.0211791992188 L 386.2657775878906 552.0211791992188 L 382.64501953125 552.0211791992188 L 379.9602661132813 552.0211791992188 L 381.1729431152344 549.6258544921875 L 388.1266479492188 535.8906860351563 L 388.5846557617188 534.9859619140625 L 389.5987243652344 534.9859619140625 L 395.5649108886719 534.9859619140625 L 396.5780639648438 534.9859619140625 L 397.0364074707031 535.8895263671875 L 404.0038757324219 549.6246948242188 L 405.2195434570313 552.0211791992188 Z" stroke="none"/>
          <path d="M 389.5987243652344 536.635986328125 L 382.64501953125 550.3711547851563 L 386.2657775878906 550.3711547851563 L 387.404052734375 548.0177001953125 L 395.2220764160156 548.0177001953125 L 396.3603820800781 550.3711547851563 L 402.5323791503906 550.3711547851563 L 395.5649108886719 536.635986328125 L 389.5987243652344 536.635986328125 M 393.8366394042969 545.1612548828125 L 388.7894897460938 545.1612548828125 L 391.3679809570313 539.8477783203125 L 393.8366394042969 545.1612548828125 M 389.5987243652344 533.3359985351563 L 395.5649108886719 533.3359985351563 C 396.8079833984375 533.3359985351563 397.945556640625 534.0344848632813 398.5079040527344 535.14306640625 L 405.4753723144531 548.8782348632813 C 405.9943237304688 549.9012451171875 405.9447937011719 551.120361328125 405.3445434570313 552.097900390625 C 404.7442932128906 553.075439453125 403.6794738769531 553.671142578125 402.5323791503906 553.671142578125 L 396.3603820800781 553.671142578125 C 395.0947875976563 553.671142578125 393.9407043457031 552.9473266601563 393.3896484375 551.8080444335938 L 393.1524658203125 551.3176879882813 L 389.4736938476563 551.3176879882813 L 389.2365417480469 551.8079833984375 C 388.6854858398438 552.9473266601563 387.5313720703125 553.671142578125 386.2657775878906 553.671142578125 L 382.64501953125 553.671142578125 C 381.4983825683594 553.671142578125 380.4339294433594 553.075927734375 379.8335571289063 552.0990600585938 C 379.233154296875 551.1221313476563 379.1829223632813 549.9036254882813 379.7008361816406 548.880615234375 L 386.654541015625 535.1454467773438 C 387.2164306640625 534.0355834960938 388.354736328125 533.3359985351563 389.5987243652344 533.3359985351563 Z" stroke="none" fill="#fff"/>
        </g>
        <g id="Path_16" data-name="Path 16" transform="translate(-387.55 -508.308)" fill="#fff" stroke-linejoin="round" fill-rule="evenodd">
          <path d="M 456.4036254882813 552.0213012695313 L 454.7536315917969 552.0213012695313 L 449.1851501464844 552.0213012695313 L 447.53515625 552.0213012695313 L 447.53515625 550.3712768554688 L 447.53515625 541.2908325195313 L 444.2475891113281 541.2908325195313 L 442.5975952148438 541.2908325195313 L 442.5975952148438 539.6408081054688 L 442.5975952148438 536.6362915039063 L 442.5975952148438 534.9862670898438 L 444.2475891113281 534.9862670898438 L 459.3620300292969 534.9862670898438 L 461.0120239257813 534.9862670898438 L 461.0120239257813 536.6362915039063 L 461.0120239257813 539.6408081054688 L 461.0120239257813 541.2908325195313 L 459.3620300292969 541.2908325195313 L 456.4036254882813 541.2908325195313 L 456.4036254882813 550.3712768554688 L 456.4036254882813 552.0213012695313 Z" stroke="none"/>
          <path d="M 444.2475891113281 536.6362915039063 L 444.2475891113281 539.6408081054688 L 449.1851501464844 539.6408081054688 L 449.1851501464844 550.3712768554688 L 454.7536315917969 550.3712768554688 L 454.7536315917969 539.6408081054688 L 459.3620300292969 539.6408081054688 L 459.3620300292969 536.6362915039063 L 444.2475891113281 536.6362915039063 M 444.2475891113281 533.3363037109375 L 459.3620300292969 533.3363037109375 C 461.1845703125 533.3363037109375 462.6620178222656 534.8137817382813 462.6620178222656 536.6362915039063 L 462.6620178222656 539.6408081054688 C 462.6620178222656 541.4633178710938 461.1845703125 542.9407958984375 459.3620300292969 542.9407958984375 L 458.0536193847656 542.9407958984375 L 458.0536193847656 550.3712768554688 C 458.0536193847656 552.1937866210938 456.576171875 553.6712646484375 454.7536315917969 553.6712646484375 L 449.1851501464844 553.6712646484375 C 447.3626098632813 553.6712646484375 445.8851623535156 552.1937866210938 445.8851623535156 550.3712768554688 L 445.8851623535156 542.9407958984375 L 444.2475891113281 542.9407958984375 C 442.425048828125 542.9407958984375 440.9476013183594 541.4633178710938 440.9476013183594 539.6408081054688 L 440.9476013183594 536.6362915039063 C 440.9476013183594 534.8137817382813 442.425048828125 533.3363037109375 444.2475891113281 533.3363037109375 Z" stroke="none" fill="#fff"/>
        </g>
      </g>
    </g>
    <g id="Group_697" data-name="Group 697" transform="translate(-362.63 -0.194)">
      <g id="Group_65-2" data-name="Group 65" transform="translate(1504.651 52.248)">
        <path id="Path_9-2" data-name="Path 9" d="M281.8,475.268c2.551,7-1.6,11.485-5.76,15.985-3.854,4.6-7.256,9.369-.411,17.968-2.565-7,1.6-11.485,5.747-15.97,3.868-4.6,7.269-9.384.425-17.983Z" transform="translate(-265.518 -466.328)" fill="#e4252e" fill-rule="evenodd"/>
        <path id="Path_10-2" data-name="Path 10" d="M260.7,446.972c2.551,7-1.618,11.485-5.761,15.985-3.868,4.588-7.256,9.369-.425,17.953-2.551-6.986,1.6-11.471,5.76-15.97,3.854-4.6,7.256-9.369.425-17.968Z" transform="translate(-250.592 -446.972)" fill="#00966a" fill-rule="evenodd"/>
        <path id="Path_11-2" data-name="Path 11" d="M630.743,536.636v13.735h5.568v-5.017h6.131v-3.019h-6.131v-2.694h12.152v10.73h5.568v-10.73h5.047v-3Z" transform="translate(-519.444 -508.308)" fill="#00966a" fill-rule="evenodd"/>
        <path id="Path_12-2" data-name="Path 12" d="M576.455,547.4v-2.383h7.255v-3h-7.255v-2.368h9.327v-3H570.873v13.735h15.018V547.4Z" transform="translate(-477.103 -508.308)" fill="#00966a" fill-rule="evenodd"/>
        <path id="Path_13-2" data-name="Path 13" d="M515.573,536.636V543.5l-8.915-6.867h-4.32v13.735h3.813v-7.563l9.148,7.563h4.087V536.636Z" transform="translate(-428.632 -508.308)" fill="#00966a" fill-rule="evenodd"/>
        <path id="Path_14-2" data-name="Path 14" d="M351.931,536.636H336.5v3h4.924v10.73h5.582v-10.73h4.924Z" transform="translate(-311.349 -508.308)" fill="#e4252e" fill-rule="evenodd"/>
        <path id="Path_15-2" data-name="Path 15" d="M395.565,536.636H389.6l-6.954,13.735h3.621l1.138-2.353h7.818l1.138,2.353h6.172Zm-6.775,8.525,2.578-5.313,2.469,5.313Z" transform="translate(-343.983 -508.308)" fill="#e4252e" fill-rule="evenodd"/>
        <path id="Path_16-2" data-name="Path 16" d="M459.362,536.636H444.248v3h4.938v10.73h5.568v-10.73h4.608Z" transform="translate(-387.55 -508.308)" fill="#e4252e" fill-rule="evenodd"/>
      </g>
      <text id="Официальный_спонсор" data-name="Официальный спонсор" transform="translate(1542.595 71.9)" fill="#fff" font-size="8" font-family="Roboto-Regular, Roboto"><tspan x="0" y="0">Официальный спонсор</tspan></text>
    </g>
  </g>
</svg>
